<svg width="742pt" height="452pt" viewBox="0.00 0.00 742.17 452.47" xmlns="http://www.w3.org/2000/svg" xmlns:xlink="http://www.w3.org/1999/xlink">
<g id="graph0" class="graph" transform="scale(1 1) rotate(0) translate(4 448.47)">
<!-- 4 -->
<g id="4" class="node">
<title>4</title>
<polygon fill="transparent" stroke="transparent" points="113.71,-412.22 53.71,-412.22 53.71,-333.22 113.71,-333.22 113.71,-412.22"></polygon>
<path fill="#fef8f2" stroke="transparent" d="M65.71,-333.22C65.71,-333.22 101.71,-333.22 101.71,-333.22 107.71,-333.22 113.71,-339.22 113.71,-345.22 113.71,-345.22 113.71,-400.22 113.71,-400.22 113.71,-406.22 107.71,-412.22 101.71,-412.22 101.71,-412.22 65.71,-412.22 65.71,-412.22 59.71,-412.22 53.71,-406.22 53.71,-400.22 53.71,-400.22 53.71,-345.22 53.71,-345.22 53.71,-339.22 59.71,-333.22 65.71,-333.22"></path>
<text text-anchor="start" x="80.21" y="-393.52" font-family="Times New Roman,serif" font-size="14.00" fill="#000000">4</text>
<path fill="#f3995f" stroke="transparent" d="M65.71,-362.72C65.71,-362.72 101.71,-362.72 101.71,-362.72 105.21,-362.72 108.71,-366.22 108.71,-369.72 108.71,-369.72 108.71,-376.72 108.71,-376.72 108.71,-380.22 105.21,-383.72 101.71,-383.72 101.71,-383.72 65.71,-383.72 65.71,-383.72 62.21,-383.72 58.71,-380.22 58.71,-376.72 58.71,-376.72 58.71,-369.72 58.71,-369.72 58.71,-366.22 62.21,-362.72 65.71,-362.72"></path>
<path fill="none" stroke="#000000" d="M65.71,-362.72C65.71,-362.72 101.71,-362.72 101.71,-362.72 105.21,-362.72 108.71,-366.22 108.71,-369.72 108.71,-369.72 108.71,-376.72 108.71,-376.72 108.71,-380.22 105.21,-383.72 101.71,-383.72 101.71,-383.72 65.71,-383.72 65.71,-383.72 62.21,-383.72 58.71,-380.22 58.71,-376.72 58.71,-376.72 58.71,-369.72 58.71,-369.72 58.71,-366.22 62.21,-362.72 65.71,-362.72"></path>
<text text-anchor="start" x="70.71" y="-369.52" font-family="Times New Roman,serif" font-size="14.00" fill="#000000">RN1</text>
<path fill="#4e89b7" stroke="transparent" d="M65.71,-337.72C65.71,-337.72 101.71,-337.72 101.71,-337.72 105.21,-337.72 108.71,-341.22 108.71,-344.72 108.71,-344.72 108.71,-351.72 108.71,-351.72 108.71,-355.22 105.21,-358.72 101.71,-358.72 101.71,-358.72 65.71,-358.72 65.71,-358.72 62.21,-358.72 58.71,-355.22 58.71,-351.72 58.71,-351.72 58.71,-344.72 58.71,-344.72 58.71,-341.22 62.21,-337.72 65.71,-337.72"></path>
<path fill="none" stroke="#000000" d="M65.71,-337.72C65.71,-337.72 101.71,-337.72 101.71,-337.72 105.21,-337.72 108.71,-341.22 108.71,-344.72 108.71,-344.72 108.71,-351.72 108.71,-351.72 108.71,-355.22 105.21,-358.72 101.71,-358.72 101.71,-358.72 65.71,-358.72 65.71,-358.72 62.21,-358.72 58.71,-355.22 58.71,-351.72 58.71,-351.72 58.71,-344.72 58.71,-344.72 58.71,-341.22 62.21,-337.72 65.71,-337.72"></path>
<text text-anchor="start" x="75.71" y="-344.52" font-family="Times New Roman,serif" font-size="14.00" fill="#000000">L2</text>
<path fill="none" stroke="#000000" d="M65.71,-333.22C65.71,-333.22 101.71,-333.22 101.71,-333.22 107.71,-333.22 113.71,-339.22 113.71,-345.22 113.71,-345.22 113.71,-400.22 113.71,-400.22 113.71,-406.22 107.71,-412.22 101.71,-412.22 101.71,-412.22 65.71,-412.22 65.71,-412.22 59.71,-412.22 53.71,-406.22 53.71,-400.22 53.71,-400.22 53.71,-345.22 53.71,-345.22 53.71,-339.22 59.71,-333.22 65.71,-333.22"></path>
</g>
<!-- 3 -->
<g id="3" class="node">
<title>3</title>
<polygon fill="transparent" stroke="transparent" points="195.47,-325.22 135.47,-325.22 135.47,-271.22 195.47,-271.22 195.47,-325.22"></polygon>
<path fill="#fef8f2" stroke="transparent" d="M147.47,-271.22C147.47,-271.22 183.47,-271.22 183.47,-271.22 189.47,-271.22 195.47,-277.22 195.47,-283.22 195.47,-283.22 195.47,-313.22 195.47,-313.22 195.47,-319.22 189.47,-325.22 183.47,-325.22 183.47,-325.22 147.47,-325.22 147.47,-325.22 141.47,-325.22 135.47,-319.22 135.47,-313.22 135.47,-313.22 135.47,-283.22 135.47,-283.22 135.47,-277.22 141.47,-271.22 147.47,-271.22"></path>
<text text-anchor="start" x="161.97" y="-307.02" font-family="Times New Roman,serif" font-size="14.00" fill="#000000">3</text>
<path fill="#4e89b7" stroke="transparent" d="M147.47,-276.22C147.47,-276.22 183.47,-276.22 183.47,-276.22 186.97,-276.22 190.47,-279.72 190.47,-283.22 190.47,-283.22 190.47,-290.22 190.47,-290.22 190.47,-293.72 186.97,-297.22 183.47,-297.22 183.47,-297.22 147.47,-297.22 147.47,-297.22 143.97,-297.22 140.47,-293.72 140.47,-290.22 140.47,-290.22 140.47,-283.22 140.47,-283.22 140.47,-279.72 143.97,-276.22 147.47,-276.22"></path>
<path fill="none" stroke="#000000" d="M147.47,-276.22C147.47,-276.22 183.47,-276.22 183.47,-276.22 186.97,-276.22 190.47,-279.72 190.47,-283.22 190.47,-283.22 190.47,-290.22 190.47,-290.22 190.47,-293.72 186.97,-297.22 183.47,-297.22 183.47,-297.22 147.47,-297.22 147.47,-297.22 143.97,-297.22 140.47,-293.72 140.47,-290.22 140.47,-290.22 140.47,-283.22 140.47,-283.22 140.47,-279.72 143.97,-276.22 147.47,-276.22"></path>
<text text-anchor="start" x="157.47" y="-283.02" font-family="Times New Roman,serif" font-size="14.00" fill="#000000">L1</text>
<path fill="none" stroke="#000000" d="M147.47,-271.22C147.47,-271.22 183.47,-271.22 183.47,-271.22 189.47,-271.22 195.47,-277.22 195.47,-283.22 195.47,-283.22 195.47,-313.22 195.47,-313.22 195.47,-319.22 189.47,-325.22 183.47,-325.22 183.47,-325.22 147.47,-325.22 147.47,-325.22 141.47,-325.22 135.47,-319.22 135.47,-313.22 135.47,-313.22 135.47,-283.22 135.47,-283.22 135.47,-277.22 141.47,-271.22 147.47,-271.22"></path>
</g>
<!-- 4&#45;&gt;3 -->
<g id="3-4" class="edge">
<title>4-&gt;3</title>
<path fill="none" stroke="#000000" d="M114.15,-344.98C118.8,-340.75 123.64,-336.33 128.41,-331.99"></path>
<polygon fill="#000000" stroke="#000000" points="133.12,-322.29 138.51,-328.2 132.59,-333.59 127.21,-327.67 133.12,-322.29"></polygon>
<polyline fill="none" stroke="#000000" points="129.9,-330.63 128.42,-331.98 "></polyline>
</g>
<!-- 3&#45;&gt;3 -->
<g id="3-3" class="edge">
<title>3-&gt;3</title>
<path fill="none" stroke="#000000" d="M195.93,-304.97C205.71,-304.9 213.47,-302.65 213.47,-298.22 213.47,-293.79 205.71,-291.54 195.93,-291.47"></path>
</g>
<!-- 1 -->
<g id="1" class="node">
<title>1</title>
<polygon fill="transparent" stroke="transparent" points="60,-286.1 0,-286.1 0,-232.1 60,-232.1 60,-286.1"></polygon>
<path fill="#fef8f2" stroke="transparent" d="M12,-232.1C12,-232.1 48,-232.1 48,-232.1 54,-232.1 60,-238.1 60,-244.1 60,-244.1 60,-274.1 60,-274.1 60,-280.1 54,-286.1 48,-286.1 48,-286.1 12,-286.1 12,-286.1 6,-286.1 0,-280.1 0,-274.1 0,-274.1 0,-244.1 0,-244.1 0,-238.1 6,-232.1 12,-232.1"></path>
<text text-anchor="start" x="26.5" y="-267.9" font-family="Times New Roman,serif" font-size="14.00" fill="#000000">1</text>
<path fill="#6aa764" stroke="transparent" d="M12,-237.1C12,-237.1 48,-237.1 48,-237.1 51.5,-237.1 55,-240.6 55,-244.1 55,-244.1 55,-251.1 55,-251.1 55,-254.6 51.5,-258.1 48,-258.1 48,-258.1 12,-258.1 12,-258.1 8.5,-258.1 5,-254.6 5,-251.1 5,-251.1 5,-244.1 5,-244.1 5,-240.6 8.5,-237.1 12,-237.1"></path>
<path fill="none" stroke="#000000" d="M12,-237.1C12,-237.1 48,-237.1 48,-237.1 51.5,-237.1 55,-240.6 55,-244.1 55,-244.1 55,-251.1 55,-251.1 55,-254.6 51.5,-258.1 48,-258.1 48,-258.1 12,-258.1 12,-258.1 8.5,-258.1 5,-254.6 5,-251.1 5,-251.1 5,-244.1 5,-244.1 5,-240.6 8.5,-237.1 12,-237.1"></path>
<text text-anchor="start" x="19.5" y="-243.9" font-family="Times New Roman,serif" font-size="14.00" fill="#000000">MF</text>
<path fill="none" stroke="#000000" d="M12,-232.1C12,-232.1 48,-232.1 48,-232.1 54,-232.1 60,-238.1 60,-244.1 60,-244.1 60,-274.1 60,-274.1 60,-280.1 54,-286.1 48,-286.1 48,-286.1 12,-286.1 12,-286.1 6,-286.1 0,-280.1 0,-274.1 0,-274.1 0,-244.1 0,-244.1 0,-238.1 6,-232.1 12,-232.1"></path>
</g>
<!-- 3&#45;&gt;1 -->
<g id="1-3" class="edge">
<title>3-&gt;1</title>
<path fill="none" stroke="#000000" d="M125.57,-286.7C108.16,-281.67 87.8,-275.79 70.34,-270.75"></path>
<polygon fill="#000000" stroke="#000000" points="136.51,-285.7 134.29,-293.38 126.61,-291.16 128.83,-283.48 136.51,-285.7"></polygon>
<polyline fill="none" stroke="#000000" points="127.72,-287.32 125.79,-286.76 "></polyline>
<polygon fill="#000000" stroke="#000000" points="59.34,-271.74 61.56,-264.05 69.24,-266.27 67.02,-273.96 59.34,-271.74"></polygon>
<polyline fill="none" stroke="#000000" points="68.13,-270.11 70.06,-270.67 "></polyline>
</g>
<!-- 7 -->
<g id="7" class="node">
<title>7</title>
<polygon fill="transparent" stroke="transparent" points="684.38,-336.96 624.38,-336.96 624.38,-232.96 684.38,-232.96 684.38,-336.96"></polygon>
<path fill="#fef8f2" stroke="transparent" d="M636.38,-232.96C636.38,-232.96 672.38,-232.96 672.38,-232.96 678.38,-232.96 684.38,-238.96 684.38,-244.96 684.38,-244.96 684.38,-324.96 684.38,-324.96 684.38,-330.96 678.38,-336.96 672.38,-336.96 672.38,-336.96 636.38,-336.96 636.38,-336.96 630.38,-336.96 624.38,-330.96 624.38,-324.96 624.38,-324.96 624.38,-244.96 624.38,-244.96 624.38,-238.96 630.38,-232.96 636.38,-232.96"></path>
<text text-anchor="start" x="650.88" y="-318.76" font-family="Times New Roman,serif" font-size="14.00" fill="#000000">7</text>
<path fill="#f3995f" stroke="transparent" d="M636.38,-287.96C636.38,-287.96 672.38,-287.96 672.38,-287.96 675.88,-287.96 679.38,-291.46 679.38,-294.96 679.38,-294.96 679.38,-301.96 679.38,-301.96 679.38,-305.46 675.88,-308.96 672.38,-308.96 672.38,-308.96 636.38,-308.96 636.38,-308.96 632.88,-308.96 629.38,-305.46 629.38,-301.96 629.38,-301.96 629.38,-294.96 629.38,-294.96 629.38,-291.46 632.88,-287.96 636.38,-287.96"></path>
<path fill="none" stroke="#000000" d="M636.38,-287.96C636.38,-287.96 672.38,-287.96 672.38,-287.96 675.88,-287.96 679.38,-291.46 679.38,-294.96 679.38,-294.96 679.38,-301.96 679.38,-301.96 679.38,-305.46 675.88,-308.96 672.38,-308.96 672.38,-308.96 636.38,-308.96 636.38,-308.96 632.88,-308.96 629.38,-305.46 629.38,-301.96 629.38,-301.96 629.38,-294.96 629.38,-294.96 629.38,-291.46 632.88,-287.96 636.38,-287.96"></path>
<text text-anchor="start" x="641.38" y="-294.76" font-family="Times New Roman,serif" font-size="14.00" fill="#000000">RN2</text>
<path fill="#4e89b7" stroke="transparent" d="M636.38,-262.96C636.38,-262.96 672.38,-262.96 672.38,-262.96 675.88,-262.96 679.38,-266.46 679.38,-269.96 679.38,-269.96 679.38,-276.96 679.38,-276.96 679.38,-280.46 675.88,-283.96 672.38,-283.96 672.38,-283.96 636.38,-283.96 636.38,-283.96 632.88,-283.96 629.38,-280.46 629.38,-276.96 629.38,-276.96 629.38,-269.96 629.38,-269.96 629.38,-266.46 632.88,-262.96 636.38,-262.96"></path>
<path fill="none" stroke="#000000" d="M636.38,-262.96C636.38,-262.96 672.38,-262.96 672.38,-262.96 675.88,-262.96 679.38,-266.46 679.38,-269.96 679.38,-269.96 679.38,-276.96 679.38,-276.96 679.38,-280.46 675.88,-283.96 672.38,-283.96 672.38,-283.96 636.38,-283.96 636.38,-283.96 632.88,-283.96 629.38,-280.46 629.38,-276.96 629.38,-276.96 629.38,-269.96 629.38,-269.96 629.38,-266.46 632.88,-262.96 636.38,-262.96"></path>
<text text-anchor="start" x="646.38" y="-269.76" font-family="Times New Roman,serif" font-size="14.00" fill="#000000">L4</text>
<path fill="#4e89b7" stroke="transparent" d="M636.38,-237.96C636.38,-237.96 672.38,-237.96 672.38,-237.96 675.88,-237.96 679.38,-241.46 679.38,-244.96 679.38,-244.96 679.38,-251.96 679.38,-251.96 679.38,-255.46 675.88,-258.96 672.38,-258.96 672.38,-258.96 636.38,-258.96 636.38,-258.96 632.88,-258.96 629.38,-255.46 629.38,-251.96 629.38,-251.96 629.38,-244.96 629.38,-244.96 629.38,-241.46 632.88,-237.96 636.38,-237.96"></path>
<path fill="none" stroke="#000000" d="M636.38,-237.96C636.38,-237.96 672.38,-237.96 672.38,-237.96 675.88,-237.96 679.38,-241.46 679.38,-244.96 679.38,-244.96 679.38,-251.96 679.38,-251.96 679.38,-255.46 675.88,-258.96 672.38,-258.96 672.38,-258.96 636.38,-258.96 636.38,-258.96 632.88,-258.96 629.38,-255.46 629.38,-251.96 629.38,-251.96 629.38,-244.96 629.38,-244.96 629.38,-241.46 632.88,-237.96 636.38,-237.96"></path>
<text text-anchor="start" x="646.38" y="-244.76" font-family="Times New Roman,serif" font-size="14.00" fill="#000000">L3</text>
<path fill="none" stroke="#000000" d="M636.38,-232.96C636.38,-232.96 672.38,-232.96 672.38,-232.96 678.38,-232.96 684.38,-238.96 684.38,-244.96 684.38,-244.96 684.38,-324.96 684.38,-324.96 684.38,-330.96 678.38,-336.96 672.38,-336.96 672.38,-336.96 636.38,-336.96 636.38,-336.96 630.38,-336.96 624.38,-330.96 624.38,-324.96 624.38,-324.96 624.38,-244.96 624.38,-244.96 624.38,-238.96 630.38,-232.96 636.38,-232.96"></path>
</g>
<!-- 7&#45;&gt;7 -->
<g id="7-7" class="edge">
<title>7-&gt;7</title>
<path fill="none" stroke="#000000" d="M684.85,-291.71C694.63,-291.64 702.38,-289.39 702.38,-284.96 702.38,-280.53 694.63,-278.28 684.85,-278.21"></path>
</g>
<!-- 9 -->
<g id="9" class="node">
<title>9</title>
<polygon fill="transparent" stroke="transparent" points="514.99,-295.86 454.99,-295.86 454.99,-241.86 514.99,-241.86 514.99,-295.86"></polygon>
<path fill="#fef8f2" stroke="transparent" d="M466.99,-241.86C466.99,-241.86 502.99,-241.86 502.99,-241.86 508.99,-241.86 514.99,-247.86 514.99,-253.86 514.99,-253.86 514.99,-283.86 514.99,-283.86 514.99,-289.86 508.99,-295.86 502.99,-295.86 502.99,-295.86 466.99,-295.86 466.99,-295.86 460.99,-295.86 454.99,-289.86 454.99,-283.86 454.99,-283.86 454.99,-253.86 454.99,-253.86 454.99,-247.86 460.99,-241.86 466.99,-241.86"></path>
<text text-anchor="start" x="481.49" y="-277.66" font-family="Times New Roman,serif" font-size="14.00" fill="#000000">9</text>
<path fill="#4e89b7" stroke="transparent" d="M466.99,-246.86C466.99,-246.86 502.99,-246.86 502.99,-246.86 506.49,-246.86 509.99,-250.36 509.99,-253.86 509.99,-253.86 509.99,-260.86 509.99,-260.86 509.99,-264.36 506.49,-267.86 502.99,-267.86 502.99,-267.86 466.99,-267.86 466.99,-267.86 463.49,-267.86 459.99,-264.36 459.99,-260.86 459.99,-260.86 459.99,-253.86 459.99,-253.86 459.99,-250.36 463.49,-246.86 466.99,-246.86"></path>
<path fill="none" stroke="#000000" d="M466.99,-246.86C466.99,-246.86 502.99,-246.86 502.99,-246.86 506.49,-246.86 509.99,-250.36 509.99,-253.86 509.99,-253.86 509.99,-260.86 509.99,-260.86 509.99,-264.36 506.49,-267.86 502.99,-267.86 502.99,-267.86 466.99,-267.86 466.99,-267.86 463.49,-267.86 459.99,-264.36 459.99,-260.86 459.99,-260.86 459.99,-253.86 459.99,-253.86 459.99,-250.36 463.49,-246.86 466.99,-246.86"></path>
<text text-anchor="start" x="476.99" y="-253.66" font-family="Times New Roman,serif" font-size="14.00" fill="#000000">L5</text>
<path fill="none" stroke="#000000" d="M466.99,-241.86C466.99,-241.86 502.99,-241.86 502.99,-241.86 508.99,-241.86 514.99,-247.86 514.99,-253.86 514.99,-253.86 514.99,-283.86 514.99,-283.86 514.99,-289.86 508.99,-295.86 502.99,-295.86 502.99,-295.86 466.99,-295.86 466.99,-295.86 460.99,-295.86 454.99,-289.86 454.99,-283.86 454.99,-283.86 454.99,-253.86 454.99,-253.86 454.99,-247.86 460.99,-241.86 466.99,-241.86"></path>
</g>
<!-- 7&#45;&gt;9 -->
<g id="7-9" class="edge">
<title>7-&gt;9</title>
<path fill="none" stroke="#000000" d="M624.1,-282.08C596.52,-279.46 555.59,-275.57 525.26,-272.69"></path>
<polygon fill="#000000" stroke="#000000" points="514.63,-275.7 515.39,-267.73 523.36,-268.49 522.6,-276.45 514.63,-275.7"></polygon>
<polyline fill="none" stroke="#000000" points="522.98,-272.47 524.97,-272.66 "></polyline>
</g>
<!-- 9&#45;&gt;9 -->
<g id="9-9" class="edge">
<title>9-&gt;9</title>
<path fill="none" stroke="#000000" d="M515.46,-275.61C525.24,-275.54 532.99,-273.29 532.99,-268.86 532.99,-264.43 525.24,-262.18 515.46,-262.12"></path>
</g>
<!-- 10 -->
<g id="10" class="node">
<title>10</title>
<polygon fill="transparent" stroke="transparent" points="548.91,-377.11 488.91,-377.11 488.91,-323.11 548.91,-323.11 548.91,-377.11"></polygon>
<path fill="#fef8f2" stroke="transparent" d="M500.91,-323.11C500.91,-323.11 536.91,-323.11 536.91,-323.11 542.91,-323.11 548.91,-329.11 548.91,-335.11 548.91,-335.11 548.91,-365.11 548.91,-365.11 548.91,-371.11 542.91,-377.11 536.91,-377.11 536.91,-377.11 500.91,-377.11 500.91,-377.11 494.91,-377.11 488.91,-371.11 488.91,-365.11 488.91,-365.11 488.91,-335.11 488.91,-335.11 488.91,-329.11 494.91,-323.11 500.91,-323.11"></path>
<text text-anchor="start" x="511.91" y="-358.91" font-family="Times New Roman,serif" font-size="14.00" fill="#000000">10</text>
<path fill="#4e89b7" stroke="transparent" d="M500.91,-328.11C500.91,-328.11 536.91,-328.11 536.91,-328.11 540.41,-328.11 543.91,-331.61 543.91,-335.11 543.91,-335.11 543.91,-342.11 543.91,-342.11 543.91,-345.61 540.41,-349.11 536.91,-349.11 536.91,-349.11 500.91,-349.11 500.91,-349.11 497.41,-349.11 493.91,-345.61 493.91,-342.11 493.91,-342.11 493.91,-335.11 493.91,-335.11 493.91,-331.61 497.41,-328.11 500.91,-328.11"></path>
<path fill="none" stroke="#000000" d="M500.91,-328.11C500.91,-328.11 536.91,-328.11 536.91,-328.11 540.41,-328.11 543.91,-331.61 543.91,-335.11 543.91,-335.11 543.91,-342.11 543.91,-342.11 543.91,-345.61 540.41,-349.11 536.91,-349.11 536.91,-349.11 500.91,-349.11 500.91,-349.11 497.41,-349.11 493.91,-345.61 493.91,-342.11 493.91,-342.11 493.91,-335.11 493.91,-335.11 493.91,-331.61 497.41,-328.11 500.91,-328.11"></path>
<text text-anchor="start" x="510.91" y="-334.91" font-family="Times New Roman,serif" font-size="14.00" fill="#000000">L6</text>
<path fill="none" stroke="#000000" d="M500.91,-323.11C500.91,-323.11 536.91,-323.11 536.91,-323.11 542.91,-323.11 548.91,-329.11 548.91,-335.11 548.91,-335.11 548.91,-365.11 548.91,-365.11 548.91,-371.11 542.91,-377.11 536.91,-377.11 536.91,-377.11 500.91,-377.11 500.91,-377.11 494.91,-377.11 488.91,-371.11 488.91,-365.11 488.91,-365.11 488.91,-335.11 488.91,-335.11 488.91,-329.11 494.91,-323.11 500.91,-323.11"></path>
</g>
<!-- 10&#45;&gt;9 -->
<g id="10-9" class="edge">
<title>10-&gt;9</title>
<path fill="none" stroke="#000000" d="M507.62,-323.05C505.3,-317.49 502.82,-311.55 500.38,-305.71"></path>
<polygon fill="#000000" stroke="#000000" points="492.66,-297.62 500.05,-294.53 503.13,-301.92 495.75,-305 492.66,-297.62"></polygon>
<polyline fill="none" stroke="#000000" points="499.44,-303.46 500.21,-305.3 "></polyline>
</g>
<!-- 11 -->
<g id="11" class="node">
<title>11</title>
<polygon fill="transparent" stroke="transparent" points="647.72,-444.47 587.72,-444.47 587.72,-390.47 647.72,-390.47 647.72,-444.47"></polygon>
<path fill="#fef8f2" stroke="transparent" d="M599.72,-390.47C599.72,-390.47 635.72,-390.47 635.72,-390.47 641.72,-390.47 647.72,-396.47 647.72,-402.47 647.72,-402.47 647.72,-432.47 647.72,-432.47 647.72,-438.47 641.72,-444.47 635.72,-444.47 635.72,-444.47 599.72,-444.47 599.72,-444.47 593.72,-444.47 587.72,-438.47 587.72,-432.47 587.72,-432.47 587.72,-402.47 587.72,-402.47 587.72,-396.47 593.72,-390.47 599.72,-390.47"></path>
<text text-anchor="start" x="610.72" y="-426.27" font-family="Times New Roman,serif" font-size="14.00" fill="#000000">11</text>
<path fill="#6aa764" stroke="transparent" d="M599.72,-395.47C599.72,-395.47 635.72,-395.47 635.72,-395.47 639.22,-395.47 642.72,-398.97 642.72,-402.47 642.72,-402.47 642.72,-409.47 642.72,-409.47 642.72,-412.97 639.22,-416.47 635.72,-416.47 635.72,-416.47 599.72,-416.47 599.72,-416.47 596.22,-416.47 592.72,-412.97 592.72,-409.47 592.72,-409.47 592.72,-402.47 592.72,-402.47 592.72,-398.97 596.22,-395.47 599.72,-395.47"></path>
<path fill="none" stroke="#000000" d="M599.72,-395.47C599.72,-395.47 635.72,-395.47 635.72,-395.47 639.22,-395.47 642.72,-398.97 642.72,-402.47 642.72,-402.47 642.72,-409.47 642.72,-409.47 642.72,-412.97 639.22,-416.47 635.72,-416.47 635.72,-416.47 599.72,-416.47 599.72,-416.47 596.22,-416.47 592.72,-412.97 592.72,-409.47 592.72,-409.47 592.72,-402.47 592.72,-402.47 592.72,-398.97 596.22,-395.47 599.72,-395.47"></path>
<text text-anchor="start" x="605.72" y="-402.27" font-family="Times New Roman,serif" font-size="14.00" fill="#000000">BF1</text>
<path fill="none" stroke="#000000" d="M599.72,-390.47C599.72,-390.47 635.72,-390.47 635.72,-390.47 641.72,-390.47 647.72,-396.47 647.72,-402.47 647.72,-402.47 647.72,-432.47 647.72,-432.47 647.72,-438.47 641.72,-444.47 635.72,-444.47 635.72,-444.47 599.72,-444.47 599.72,-444.47 593.72,-444.47 587.72,-438.47 587.72,-432.47 587.72,-432.47 587.72,-402.47 587.72,-402.47 587.72,-396.47 593.72,-390.47 599.72,-390.47"></path>
</g>
<!-- 10&#45;&gt;11 -->
<g id="10-11" class="edge">
<title>10-&gt;11</title>
<path fill="none" stroke="#000000" d="M557.59,-376.47C564.55,-381.22 571.8,-386.16 578.76,-390.91"></path>
<polygon fill="none" stroke="#000000" points="546.84,-373.99 551.35,-367.38 557.96,-371.88 553.45,-378.49 546.84,-373.99"></polygon>
<polyline fill="none" stroke="#000000" points="555.71,-375.19 557.36,-376.32 "></polyline>
<polygon fill="none" stroke="#000000" points="589.64,-393.48 585.13,-400.09 578.52,-395.58 583.03,-388.97 589.64,-393.48"></polygon>
<polyline fill="none" stroke="#000000" points="580.77,-392.28 579.12,-391.15 "></polyline>
</g>
<!-- 13 -->
<g id="13" class="node">
<title>13</title>
<polygon fill="transparent" stroke="transparent" points="734.17,-193.14 674.17,-193.14 674.17,-139.14 734.17,-139.14 734.17,-193.14"></polygon>
<path fill="#fef8f2" stroke="transparent" d="M686.17,-139.14C686.17,-139.14 722.17,-139.14 722.17,-139.14 728.17,-139.14 734.17,-145.14 734.17,-151.14 734.17,-151.14 734.17,-181.14 734.17,-181.14 734.17,-187.14 728.17,-193.14 722.17,-193.14 722.17,-193.14 686.17,-193.14 686.17,-193.14 680.17,-193.14 674.17,-187.14 674.17,-181.14 674.17,-181.14 674.17,-151.14 674.17,-151.14 674.17,-145.14 680.17,-139.14 686.17,-139.14"></path>
<text text-anchor="start" x="697.17" y="-174.94" font-family="Times New Roman,serif" font-size="14.00" fill="#000000">13</text>
<path fill="#4e89b7" stroke="transparent" d="M686.17,-144.14C686.17,-144.14 722.17,-144.14 722.17,-144.14 725.67,-144.14 729.17,-147.64 729.17,-151.14 729.17,-151.14 729.17,-158.14 729.17,-158.14 729.17,-161.64 725.67,-165.14 722.17,-165.14 722.17,-165.14 686.17,-165.14 686.17,-165.14 682.67,-165.14 679.17,-161.64 679.17,-158.14 679.17,-158.14 679.17,-151.14 679.17,-151.14 679.17,-147.64 682.67,-144.14 686.17,-144.14"></path>
<path fill="none" stroke="#000000" d="M686.17,-144.14C686.17,-144.14 722.17,-144.14 722.17,-144.14 725.67,-144.14 729.17,-147.64 729.17,-151.14 729.17,-151.14 729.17,-158.14 729.17,-158.14 729.17,-161.64 725.67,-165.14 722.17,-165.14 722.17,-165.14 686.17,-165.14 686.17,-165.14 682.67,-165.14 679.17,-161.64 679.17,-158.14 679.17,-158.14 679.17,-151.14 679.17,-151.14 679.17,-147.64 682.67,-144.14 686.17,-144.14"></path>
<text text-anchor="start" x="696.17" y="-150.94" font-family="Times New Roman,serif" font-size="14.00" fill="#000000">L7</text>
<path fill="none" stroke="#000000" d="M686.17,-139.14C686.17,-139.14 722.17,-139.14 722.17,-139.14 728.17,-139.14 734.17,-145.14 734.17,-151.14 734.17,-151.14 734.17,-181.14 734.17,-181.14 734.17,-187.14 728.17,-193.14 722.17,-193.14 722.17,-193.14 686.17,-193.14 686.17,-193.14 680.17,-193.14 674.17,-187.14 674.17,-181.14 674.17,-181.14 674.17,-151.14 674.17,-151.14 674.17,-145.14 680.17,-139.14 686.17,-139.14"></path>
</g>
<!-- 12 -->
<g id="12" class="node">
<title>12</title>
<polygon fill="transparent" stroke="transparent" points="563.8,-203 523.8,-203 523.8,-174 563.8,-174 563.8,-203"></polygon>
<path fill="#fef8f2" stroke="transparent" d="M533.47,-174C533.47,-174 554.14,-174 554.14,-174 558.97,-174 563.8,-178.83 563.8,-183.67 563.8,-183.67 563.8,-193.33 563.8,-193.33 563.8,-198.17 558.97,-203 554.14,-203 554.14,-203 533.47,-203 533.47,-203 528.64,-203 523.8,-198.17 523.8,-193.33 523.8,-193.33 523.8,-183.67 523.8,-183.67 523.8,-178.83 528.64,-174 533.47,-174"></path>
<text text-anchor="start" x="536.8" y="-184.3" font-family="Times New Roman,serif" font-size="14.00" fill="#000000">12</text>
<path fill="none" stroke="#000000" d="M533.47,-174C533.47,-174 554.14,-174 554.14,-174 558.97,-174 563.8,-178.83 563.8,-183.67 563.8,-183.67 563.8,-193.33 563.8,-193.33 563.8,-198.17 558.97,-203 554.14,-203 554.14,-203 533.47,-203 533.47,-203 528.64,-203 523.8,-198.17 523.8,-193.33 523.8,-193.33 523.8,-183.67 523.8,-183.67 523.8,-178.83 528.64,-174 533.47,-174"></path>
</g>
<!-- 13&#45;&gt;12 -->
<g id="12-13" class="edge">
<title>13-&gt;12</title>
<path fill="none" stroke="#000000" d="M674.01,-170.34C645.53,-174.31 603.03,-180.24 574.4,-184.23"></path>
<polygon fill="#000000" stroke="#000000" points="564.72,-189.62 563.62,-181.7 571.54,-180.59 572.65,-188.52 564.72,-189.62"></polygon>
<polyline fill="none" stroke="#000000" points="572.09,-184.55 574.08,-184.28 "></polyline>
</g>
<!-- 12&#45;&gt;9 -->
<g id="12-9" class="edge">
<title>12-&gt;9</title>
<path fill="none" stroke="#000000" d="M533.02,-203.24C526.79,-211.75 518.67,-222.85 510.88,-233.49"></path>
<polygon fill="#000000" stroke="#000000" points="507.98,-244.22 501.52,-239.5 506.25,-233.04 512.7,-237.77 507.98,-244.22"></polygon>
<polyline fill="none" stroke="#000000" points="509.48,-235.41 510.66,-233.79 "></polyline>
</g>
<!-- 14 -->
<g id="14" class="node">
<title>14</title>
<polygon fill="transparent" stroke="transparent" points="538.07,-166 478.07,-166 478.07,-62 538.07,-62 538.07,-166"></polygon>
<path fill="#fef8f2" stroke="transparent" d="M490.07,-62C490.07,-62 526.07,-62 526.07,-62 532.07,-62 538.07,-68 538.07,-74 538.07,-74 538.07,-154 538.07,-154 538.07,-160 532.07,-166 526.07,-166 526.07,-166 490.07,-166 490.07,-166 484.07,-166 478.07,-160 478.07,-154 478.07,-154 478.07,-74 478.07,-74 478.07,-68 484.07,-62 490.07,-62"></path>
<text text-anchor="start" x="501.07" y="-147.8" font-family="Times New Roman,serif" font-size="14.00" fill="#000000">14</text>
<path fill="#4e89b7" stroke="transparent" d="M490.07,-117C490.07,-117 526.07,-117 526.07,-117 529.57,-117 533.07,-120.5 533.07,-124 533.07,-124 533.07,-131 533.07,-131 533.07,-134.5 529.57,-138 526.07,-138 526.07,-138 490.07,-138 490.07,-138 486.57,-138 483.07,-134.5 483.07,-131 483.07,-131 483.07,-124 483.07,-124 483.07,-120.5 486.57,-117 490.07,-117"></path>
<path fill="none" stroke="#000000" d="M490.07,-117C490.07,-117 526.07,-117 526.07,-117 529.57,-117 533.07,-120.5 533.07,-124 533.07,-124 533.07,-131 533.07,-131 533.07,-134.5 529.57,-138 526.07,-138 526.07,-138 490.07,-138 490.07,-138 486.57,-138 483.07,-134.5 483.07,-131 483.07,-131 483.07,-124 483.07,-124 483.07,-120.5 486.57,-117 490.07,-117"></path>
<text text-anchor="start" x="500.07" y="-123.8" font-family="Times New Roman,serif" font-size="14.00" fill="#000000">L8</text>
<path fill="#aaa1e3" stroke="transparent" d="M490.07,-92C490.07,-92 526.07,-92 526.07,-92 529.57,-92 533.07,-95.5 533.07,-99 533.07,-99 533.07,-106 533.07,-106 533.07,-109.5 529.57,-113 526.07,-113 526.07,-113 490.07,-113 490.07,-113 486.57,-113 483.07,-109.5 483.07,-106 483.07,-106 483.07,-99 483.07,-99 483.07,-95.5 486.57,-92 490.07,-92"></path>
<path fill="none" stroke="#000000" d="M490.07,-92C490.07,-92 526.07,-92 526.07,-92 529.57,-92 533.07,-95.5 533.07,-99 533.07,-99 533.07,-106 533.07,-106 533.07,-109.5 529.57,-113 526.07,-113 526.07,-113 490.07,-113 490.07,-113 486.57,-113 483.07,-109.5 483.07,-106 483.07,-106 483.07,-99 483.07,-99 483.07,-95.5 486.57,-92 490.07,-92"></path>
<text text-anchor="start" x="500.07" y="-98.8" font-family="Times New Roman,serif" font-size="14.00" fill="#000000">L9</text>
<path fill="#4e89b7" stroke="transparent" d="M490.07,-67C490.07,-67 526.07,-67 526.07,-67 529.57,-67 533.07,-70.5 533.07,-74 533.07,-74 533.07,-81 533.07,-81 533.07,-84.5 529.57,-88 526.07,-88 526.07,-88 490.07,-88 490.07,-88 486.57,-88 483.07,-84.5 483.07,-81 483.07,-81 483.07,-74 483.07,-74 483.07,-70.5 486.57,-67 490.07,-67"></path>
<path fill="none" stroke="#000000" d="M490.07,-67C490.07,-67 526.07,-67 526.07,-67 529.57,-67 533.07,-70.5 533.07,-74 533.07,-74 533.07,-81 533.07,-81 533.07,-84.5 529.57,-88 526.07,-88 526.07,-88 490.07,-88 490.07,-88 486.57,-88 483.07,-84.5 483.07,-81 483.07,-81 483.07,-74 483.07,-74 483.07,-70.5 486.57,-67 490.07,-67"></path>
<text text-anchor="start" x="497.07" y="-73.8" font-family="Times New Roman,serif" font-size="14.00" fill="#000000">L10</text>
<path fill="none" stroke="#000000" d="M490.07,-62C490.07,-62 526.07,-62 526.07,-62 532.07,-62 538.07,-68 538.07,-74 538.07,-74 538.07,-154 538.07,-154 538.07,-160 532.07,-166 526.07,-166 526.07,-166 490.07,-166 490.07,-166 484.07,-166 478.07,-160 478.07,-154 478.07,-154 478.07,-74 478.07,-74 478.07,-68 484.07,-62 490.07,-62"></path>
</g>
<!-- 14&#45;&gt;12 -->
<g id="12-14" class="edge">
<title>14-&gt;12</title>
<path fill="none" stroke="#000000" d="M533.08,-166.15C533.12,-166.23 533.16,-166.32 533.2,-166.4"></path>
<polygon fill="#000000" stroke="#000000" points="540.41,-172.17 533.19,-175.63 529.73,-168.42 536.95,-164.96 540.41,-172.17"></polygon>
<polyline fill="none" stroke="#000000" points="533.34,-166.69 532.48,-164.89 "></polyline>
</g>
<!-- 14&#45;&gt;14 -->
<g id="14-14" class="edge">
<title>14-&gt;14</title>
<path fill="none" stroke="#000000" d="M538.53,-120.75C548.31,-120.68 556.07,-118.43 556.07,-114 556.07,-109.57 548.31,-107.32 538.53,-107.25"></path>
</g>
<!-- 17 -->
<g id="17" class="node">
<title>17</title>
<polygon fill="transparent" stroke="transparent" points="541.04,-54 481.04,-54 481.04,0 541.04,0 541.04,-54"></polygon>
<path fill="#fef8f2" stroke="transparent" d="M493.04,0C493.04,0 529.04,0 529.04,0 535.04,0 541.04,-6 541.04,-12 541.04,-12 541.04,-42 541.04,-42 541.04,-48 535.04,-54 529.04,-54 529.04,-54 493.04,-54 493.04,-54 487.04,-54 481.04,-48 481.04,-42 481.04,-42 481.04,-12 481.04,-12 481.04,-6 487.04,0 493.04,0"></path>
<text text-anchor="start" x="504.04" y="-35.8" font-family="Times New Roman,serif" font-size="14.00" fill="#000000">17</text>
<path fill="#6aa764" stroke="transparent" d="M493.04,-5C493.04,-5 529.04,-5 529.04,-5 532.54,-5 536.04,-8.5 536.04,-12 536.04,-12 536.04,-19 536.04,-19 536.04,-22.5 532.54,-26 529.04,-26 529.04,-26 493.04,-26 493.04,-26 489.54,-26 486.04,-22.5 486.04,-19 486.04,-19 486.04,-12 486.04,-12 486.04,-8.5 489.54,-5 493.04,-5"></path>
<path fill="none" stroke="#000000" d="M493.04,-5C493.04,-5 529.04,-5 529.04,-5 532.54,-5 536.04,-8.5 536.04,-12 536.04,-12 536.04,-19 536.04,-19 536.04,-22.5 532.54,-26 529.04,-26 529.04,-26 493.04,-26 493.04,-26 489.54,-26 486.04,-22.5 486.04,-19 486.04,-19 486.04,-12 486.04,-12 486.04,-8.5 489.54,-5 493.04,-5"></path>
<text text-anchor="start" x="499.04" y="-11.8" font-family="Times New Roman,serif" font-size="14.00" fill="#000000">BF2</text>
<path fill="none" stroke="#000000" d="M493.04,0C493.04,0 529.04,0 529.04,0 535.04,0 541.04,-6 541.04,-12 541.04,-12 541.04,-42 541.04,-42 541.04,-48 535.04,-54 529.04,-54 529.04,-54 493.04,-54 493.04,-54 487.04,-54 481.04,-48 481.04,-42 481.04,-42 481.04,-12 481.04,-12 481.04,-6 487.04,0 493.04,0"></path>
</g>
<!-- 14&#45;&gt;17 -->
<g id="14-17" class="edge">
<title>14-&gt;17</title>
<path fill="none" stroke="#000000" d="M510.09,-54.7C510.1,-54.62 510.1,-54.55 510.1,-54.47"></path>
<polygon fill="none" stroke="#000000" points="513.84,-62.02 505.85,-61.75 506.12,-53.75 514.12,-54.03 513.84,-62.02"></polygon>
<polyline fill="none" stroke="#000000" points="510.12,-53.89 510.19,-51.89 "></polyline>
<polygon fill="none" stroke="#000000" points="506.11,-54.1 514.11,-54.37 513.83,-62.37 505.83,-62.09 506.11,-54.1"></polygon>
<polyline fill="none" stroke="#000000" points="509.83,-62.23 509.76,-64.23 "></polyline>
</g>
<!-- 5 -->
<g id="5" class="node">
<title>5</title>
<polygon fill="transparent" stroke="transparent" points="341.03,-296.44 301.03,-296.44 301.03,-267.44 341.03,-267.44 341.03,-296.44"></polygon>
<path fill="#fef8f2" stroke="transparent" d="M310.7,-267.44C310.7,-267.44 331.37,-267.44 331.37,-267.44 336.2,-267.44 341.03,-272.28 341.03,-277.11 341.03,-277.11 341.03,-286.78 341.03,-286.78 341.03,-291.61 336.2,-296.44 331.37,-296.44 331.37,-296.44 310.7,-296.44 310.7,-296.44 305.87,-296.44 301.03,-291.61 301.03,-286.78 301.03,-286.78 301.03,-277.11 301.03,-277.11 301.03,-272.28 305.87,-267.44 310.7,-267.44"></path>
<text text-anchor="start" x="317.53" y="-277.74" font-family="Times New Roman,serif" font-size="14.00" fill="#000000">5</text>
<path fill="none" stroke="#000000" d="M310.7,-267.44C310.7,-267.44 331.37,-267.44 331.37,-267.44 336.2,-267.44 341.03,-272.28 341.03,-277.11 341.03,-277.11 341.03,-286.78 341.03,-286.78 341.03,-291.61 336.2,-296.44 331.37,-296.44 331.37,-296.44 310.7,-296.44 310.7,-296.44 305.87,-296.44 301.03,-291.61 301.03,-286.78 301.03,-286.78 301.03,-277.11 301.03,-277.11 301.03,-272.28 305.87,-267.44 310.7,-267.44"></path>
</g>
<!-- 5&#45;&gt;3 -->
<g id="3-5" class="edge">
<title>5-&gt;3</title>
<path fill="none" stroke="#000000" d="M301.01,-284.04C277.08,-286.54 236.44,-290.79 205.89,-293.99"></path>
<polygon fill="#000000" stroke="#000000" points="195.96,-299.05 195.13,-291.1 203.08,-290.26 203.92,-298.22 195.96,-299.05"></polygon>
<polyline fill="none" stroke="#000000" points="203.5,-294.24 205.49,-294.03 "></polyline>
</g>
<!-- 5&#45;&gt;9 -->
<g id="5-9" class="edge">
<title>5-&gt;9</title>
<path fill="none" stroke="#000000" d="M351.28,-279.53C380.82,-277.17 425.52,-273.61 454.98,-271.26"></path>
<polygon fill="#000000" stroke="#000000" points="341.46,-284.33 340.82,-276.35 348.79,-275.72 349.43,-283.69 341.46,-284.33"></polygon>
<polyline fill="none" stroke="#000000" points="349.11,-279.7 351.11,-279.54 "></polyline>
</g>
</g>
</svg>