<svg width="1198pt" height="741pt" viewBox="0.00 0.00 1198.22 741.26" xmlns="http://www.w3.org/2000/svg" xmlns:xlink="http://www.w3.org/1999/xlink">
<g id="graph0" class="graph" transform="scale(1 1) rotate(0) translate(4 737.26)">
<!-- 4 -->
<g id="4" class="node">
<title>4</title>
<polygon fill="transparent" stroke="transparent" points="60,-585.85 0,-585.85 0,-506.85 60,-506.85 60,-585.85"></polygon>
<path fill="#fef8f2" stroke="transparent" d="M12,-506.85C12,-506.85 48,-506.85 48,-506.85 54,-506.85 60,-512.85 60,-518.85 60,-518.85 60,-573.85 60,-573.85 60,-579.85 54,-585.85 48,-585.85 48,-585.85 12,-585.85 12,-585.85 6,-585.85 0,-579.85 0,-573.85 0,-573.85 0,-518.85 0,-518.85 0,-512.85 6,-506.85 12,-506.85"></path>
<text text-anchor="start" x="26.5" y="-567.15" font-family="Times New Roman,serif" font-size="14.00" fill="#000000">4</text>
<path fill="#f3995f" stroke="transparent" d="M12,-536.35C12,-536.35 48,-536.35 48,-536.35 51.5,-536.35 55,-539.85 55,-543.35 55,-543.35 55,-550.35 55,-550.35 55,-553.85 51.5,-557.35 48,-557.35 48,-557.35 12,-557.35 12,-557.35 8.5,-557.35 5,-553.85 5,-550.35 5,-550.35 5,-543.35 5,-543.35 5,-539.85 8.5,-536.35 12,-536.35"></path>
<path fill="none" stroke="#000000" d="M12,-536.35C12,-536.35 48,-536.35 48,-536.35 51.5,-536.35 55,-539.85 55,-543.35 55,-543.35 55,-550.35 55,-550.35 55,-553.85 51.5,-557.35 48,-557.35 48,-557.35 12,-557.35 12,-557.35 8.5,-557.35 5,-553.85 5,-550.35 5,-550.35 5,-543.35 5,-543.35 5,-539.85 8.5,-536.35 12,-536.35"></path>
<text text-anchor="start" x="17" y="-543.15" font-family="Times New Roman,serif" font-size="14.00" fill="#000000">RN1</text>
<path fill="#4e89b7" stroke="transparent" d="M12,-511.35C12,-511.35 48,-511.35 48,-511.35 51.5,-511.35 55,-514.85 55,-518.35 55,-518.35 55,-525.35 55,-525.35 55,-528.85 51.5,-532.35 48,-532.35 48,-532.35 12,-532.35 12,-532.35 8.5,-532.35 5,-528.85 5,-525.35 5,-525.35 5,-518.35 5,-518.35 5,-514.85 8.5,-511.35 12,-511.35"></path>
<path fill="none" stroke="#000000" d="M12,-511.35C12,-511.35 48,-511.35 48,-511.35 51.5,-511.35 55,-514.85 55,-518.35 55,-518.35 55,-525.35 55,-525.35 55,-528.85 51.5,-532.35 48,-532.35 48,-532.35 12,-532.35 12,-532.35 8.5,-532.35 5,-528.85 5,-525.35 5,-525.35 5,-518.35 5,-518.35 5,-514.85 8.5,-511.35 12,-511.35"></path>
<text text-anchor="start" x="22" y="-518.15" font-family="Times New Roman,serif" font-size="14.00" fill="#000000">L2</text>
<path fill="none" stroke="#000000" d="M12,-506.85C12,-506.85 48,-506.85 48,-506.85 54,-506.85 60,-512.85 60,-518.85 60,-518.85 60,-573.85 60,-573.85 60,-579.85 54,-585.85 48,-585.85 48,-585.85 12,-585.85 12,-585.85 6,-585.85 0,-579.85 0,-573.85 0,-573.85 0,-518.85 0,-518.85 0,-512.85 6,-506.85 12,-506.85"></path>
</g>
<!-- 3 -->
<g id="3" class="node">
<title>3</title>
<polygon fill="transparent" stroke="transparent" points="291.14,-566.17 251.14,-566.17 251.14,-537.17 291.14,-537.17 291.14,-566.17"></polygon>
<path fill="#fef8f2" stroke="transparent" d="M260.81,-537.17C260.81,-537.17 281.48,-537.17 281.48,-537.17 286.31,-537.17 291.14,-542.01 291.14,-546.84 291.14,-546.84 291.14,-556.51 291.14,-556.51 291.14,-561.34 286.31,-566.17 281.48,-566.17 281.48,-566.17 260.81,-566.17 260.81,-566.17 255.98,-566.17 251.14,-561.34 251.14,-556.51 251.14,-556.51 251.14,-546.84 251.14,-546.84 251.14,-542.01 255.98,-537.17 260.81,-537.17"></path>
<text text-anchor="start" x="267.64" y="-547.47" font-family="Times New Roman,serif" font-size="14.00" fill="#000000">3</text>
<path fill="none" stroke="#000000" d="M260.81,-537.17C260.81,-537.17 281.48,-537.17 281.48,-537.17 286.31,-537.17 291.14,-542.01 291.14,-546.84 291.14,-546.84 291.14,-556.51 291.14,-556.51 291.14,-561.34 286.31,-566.17 281.48,-566.17 281.48,-566.17 260.81,-566.17 260.81,-566.17 255.98,-566.17 251.14,-561.34 251.14,-556.51 251.14,-556.51 251.14,-546.84 251.14,-546.84 251.14,-542.01 255.98,-537.17 260.81,-537.17"></path>
</g>
<!-- 4&#45;&gt;3 -->
<g id="3-4" class="edge">
<title>4-&gt;3</title>
<path fill="none" stroke="#000000" d="M60.05,-547.02C106.32,-548.04 194.49,-549.98 240.89,-551"></path>
<polygon fill="#000000" stroke="#000000" points="251.01,-547.23 250.84,-555.23 242.84,-555.05 243.02,-547.05 251.01,-547.23"></polygon>
<polyline fill="none" stroke="#000000" points="242.93,-551.05 240.93,-551.01 "></polyline>
</g>
<!-- 5 -->
<g id="5" class="node">
<title>5</title>
<polygon fill="transparent" stroke="transparent" points="453.49,-505.26 413.49,-505.26 413.49,-476.26 453.49,-476.26 453.49,-505.26"></polygon>
<path fill="#fef8f2" stroke="transparent" d="M423.16,-476.26C423.16,-476.26 443.83,-476.26 443.83,-476.26 448.66,-476.26 453.49,-481.09 453.49,-485.93 453.49,-485.93 453.49,-495.59 453.49,-495.59 453.49,-500.43 448.66,-505.26 443.83,-505.26 443.83,-505.26 423.16,-505.26 423.16,-505.26 418.33,-505.26 413.49,-500.43 413.49,-495.59 413.49,-495.59 413.49,-485.93 413.49,-485.93 413.49,-481.09 418.33,-476.26 423.16,-476.26"></path>
<text text-anchor="start" x="429.99" y="-486.56" font-family="Times New Roman,serif" font-size="14.00" fill="#000000">5</text>
<path fill="none" stroke="#000000" d="M423.16,-476.26C423.16,-476.26 443.83,-476.26 443.83,-476.26 448.66,-476.26 453.49,-481.09 453.49,-485.93 453.49,-485.93 453.49,-495.59 453.49,-495.59 453.49,-500.43 448.66,-505.26 443.83,-505.26 443.83,-505.26 423.16,-505.26 423.16,-505.26 418.33,-505.26 413.49,-500.43 413.49,-495.59 413.49,-495.59 413.49,-485.93 413.49,-485.93 413.49,-481.09 418.33,-476.26 423.16,-476.26"></path>
</g>
<!-- 3&#45;&gt;5 -->
<g id="3-5" class="edge">
<title>3-&gt;5</title>
<path fill="none" stroke="#000000" d="M300.85,-540.53C333.48,-528.28 384.99,-508.96 413.26,-498.35"></path>
<polygon fill="#000000" stroke="#000000" points="292.78,-547.83 289.97,-540.34 297.46,-537.53 300.27,-545.02 292.78,-547.83"></polygon>
<polyline fill="none" stroke="#000000" points="298.87,-541.27 300.74,-540.57 "></polyline>
</g>
<!-- 7 -->
<g id="7" class="node">
<title>7</title>
<polygon fill="transparent" stroke="transparent" points="1056.42,-572.94 996.42,-572.94 996.42,-493.94 1056.42,-493.94 1056.42,-572.94"></polygon>
<path fill="#fef8f2" stroke="transparent" d="M1008.42,-493.94C1008.42,-493.94 1044.42,-493.94 1044.42,-493.94 1050.42,-493.94 1056.42,-499.94 1056.42,-505.94 1056.42,-505.94 1056.42,-560.94 1056.42,-560.94 1056.42,-566.94 1050.42,-572.94 1044.42,-572.94 1044.42,-572.94 1008.42,-572.94 1008.42,-572.94 1002.42,-572.94 996.42,-566.94 996.42,-560.94 996.42,-560.94 996.42,-505.94 996.42,-505.94 996.42,-499.94 1002.42,-493.94 1008.42,-493.94"></path>
<text text-anchor="start" x="1022.92" y="-554.24" font-family="Times New Roman,serif" font-size="14.00" fill="#000000">7</text>
<path fill="#f3995f" stroke="transparent" d="M1008.42,-523.44C1008.42,-523.44 1044.42,-523.44 1044.42,-523.44 1047.92,-523.44 1051.42,-526.94 1051.42,-530.44 1051.42,-530.44 1051.42,-537.44 1051.42,-537.44 1051.42,-540.94 1047.92,-544.44 1044.42,-544.44 1044.42,-544.44 1008.42,-544.44 1008.42,-544.44 1004.92,-544.44 1001.42,-540.94 1001.42,-537.44 1001.42,-537.44 1001.42,-530.44 1001.42,-530.44 1001.42,-526.94 1004.92,-523.44 1008.42,-523.44"></path>
<path fill="none" stroke="#000000" d="M1008.42,-523.44C1008.42,-523.44 1044.42,-523.44 1044.42,-523.44 1047.92,-523.44 1051.42,-526.94 1051.42,-530.44 1051.42,-530.44 1051.42,-537.44 1051.42,-537.44 1051.42,-540.94 1047.92,-544.44 1044.42,-544.44 1044.42,-544.44 1008.42,-544.44 1008.42,-544.44 1004.92,-544.44 1001.42,-540.94 1001.42,-537.44 1001.42,-537.44 1001.42,-530.44 1001.42,-530.44 1001.42,-526.94 1004.92,-523.44 1008.42,-523.44"></path>
<text text-anchor="start" x="1013.42" y="-530.24" font-family="Times New Roman,serif" font-size="14.00" fill="#000000">RN2</text>
<path fill="#4e89b7" stroke="transparent" d="M1008.42,-498.44C1008.42,-498.44 1044.42,-498.44 1044.42,-498.44 1047.92,-498.44 1051.42,-501.94 1051.42,-505.44 1051.42,-505.44 1051.42,-512.44 1051.42,-512.44 1051.42,-515.94 1047.92,-519.44 1044.42,-519.44 1044.42,-519.44 1008.42,-519.44 1008.42,-519.44 1004.92,-519.44 1001.42,-515.94 1001.42,-512.44 1001.42,-512.44 1001.42,-505.44 1001.42,-505.44 1001.42,-501.94 1004.92,-498.44 1008.42,-498.44"></path>
<path fill="none" stroke="#000000" d="M1008.42,-498.44C1008.42,-498.44 1044.42,-498.44 1044.42,-498.44 1047.92,-498.44 1051.42,-501.94 1051.42,-505.44 1051.42,-505.44 1051.42,-512.44 1051.42,-512.44 1051.42,-515.94 1047.92,-519.44 1044.42,-519.44 1044.42,-519.44 1008.42,-519.44 1008.42,-519.44 1004.92,-519.44 1001.42,-515.94 1001.42,-512.44 1001.42,-512.44 1001.42,-505.44 1001.42,-505.44 1001.42,-501.94 1004.92,-498.44 1008.42,-498.44"></path>
<text text-anchor="start" x="1018.42" y="-505.24" font-family="Times New Roman,serif" font-size="14.00" fill="#000000">L4</text>
<path fill="none" stroke="#000000" d="M1008.42,-493.94C1008.42,-493.94 1044.42,-493.94 1044.42,-493.94 1050.42,-493.94 1056.42,-499.94 1056.42,-505.94 1056.42,-505.94 1056.42,-560.94 1056.42,-560.94 1056.42,-566.94 1050.42,-572.94 1044.42,-572.94 1044.42,-572.94 1008.42,-572.94 1008.42,-572.94 1002.42,-572.94 996.42,-566.94 996.42,-560.94 996.42,-560.94 996.42,-505.94 996.42,-505.94 996.42,-499.94 1002.42,-493.94 1008.42,-493.94"></path>
</g>
<!-- 6 -->
<g id="6" class="node">
<title>6</title>
<polygon fill="transparent" stroke="transparent" points="853.34,-514.68 793.34,-514.68 793.34,-460.68 853.34,-460.68 853.34,-514.68"></polygon>
<path fill="#fef8f2" stroke="transparent" d="M805.34,-460.68C805.34,-460.68 841.34,-460.68 841.34,-460.68 847.34,-460.68 853.34,-466.68 853.34,-472.68 853.34,-472.68 853.34,-502.68 853.34,-502.68 853.34,-508.68 847.34,-514.68 841.34,-514.68 841.34,-514.68 805.34,-514.68 805.34,-514.68 799.34,-514.68 793.34,-508.68 793.34,-502.68 793.34,-502.68 793.34,-472.68 793.34,-472.68 793.34,-466.68 799.34,-460.68 805.34,-460.68"></path>
<text text-anchor="start" x="819.84" y="-496.48" font-family="Times New Roman,serif" font-size="14.00" fill="#000000">6</text>
<path fill="#4e89b7" stroke="transparent" d="M805.34,-465.68C805.34,-465.68 841.34,-465.68 841.34,-465.68 844.84,-465.68 848.34,-469.18 848.34,-472.68 848.34,-472.68 848.34,-479.68 848.34,-479.68 848.34,-483.18 844.84,-486.68 841.34,-486.68 841.34,-486.68 805.34,-486.68 805.34,-486.68 801.84,-486.68 798.34,-483.18 798.34,-479.68 798.34,-479.68 798.34,-472.68 798.34,-472.68 798.34,-469.18 801.84,-465.68 805.34,-465.68"></path>
<path fill="none" stroke="#000000" d="M805.34,-465.68C805.34,-465.68 841.34,-465.68 841.34,-465.68 844.84,-465.68 848.34,-469.18 848.34,-472.68 848.34,-472.68 848.34,-479.68 848.34,-479.68 848.34,-483.18 844.84,-486.68 841.34,-486.68 841.34,-486.68 805.34,-486.68 805.34,-486.68 801.84,-486.68 798.34,-483.18 798.34,-479.68 798.34,-479.68 798.34,-472.68 798.34,-472.68 798.34,-469.18 801.84,-465.68 805.34,-465.68"></path>
<text text-anchor="start" x="815.34" y="-472.48" font-family="Times New Roman,serif" font-size="14.00" fill="#000000">L3</text>
<path fill="none" stroke="#000000" d="M805.34,-460.68C805.34,-460.68 841.34,-460.68 841.34,-460.68 847.34,-460.68 853.34,-466.68 853.34,-472.68 853.34,-472.68 853.34,-502.68 853.34,-502.68 853.34,-508.68 847.34,-514.68 841.34,-514.68 841.34,-514.68 805.34,-514.68 805.34,-514.68 799.34,-514.68 793.34,-508.68 793.34,-502.68 793.34,-502.68 793.34,-472.68 793.34,-472.68 793.34,-466.68 799.34,-460.68 805.34,-460.68"></path>
</g>
<!-- 7&#45;&gt;6 -->
<g id="6-7" class="edge">
<title>7-&gt;6</title>
<path fill="none" stroke="#000000" d="M996.02,-526.59C957.62,-517.94 891.96,-503.14 853.62,-494.5"></path>
</g>
<!-- 8 -->
<g id="8" class="node">
<title>8</title>
<polygon fill="transparent" stroke="transparent" points="650.26,-464.33 590.26,-464.33 590.26,-410.33 650.26,-410.33 650.26,-464.33"></polygon>
<path fill="#fef8f2" stroke="transparent" d="M602.26,-410.33C602.26,-410.33 638.26,-410.33 638.26,-410.33 644.26,-410.33 650.26,-416.33 650.26,-422.33 650.26,-422.33 650.26,-452.33 650.26,-452.33 650.26,-458.33 644.26,-464.33 638.26,-464.33 638.26,-464.33 602.26,-464.33 602.26,-464.33 596.26,-464.33 590.26,-458.33 590.26,-452.33 590.26,-452.33 590.26,-422.33 590.26,-422.33 590.26,-416.33 596.26,-410.33 602.26,-410.33"></path>
<text text-anchor="start" x="616.76" y="-446.13" font-family="Times New Roman,serif" font-size="14.00" fill="#000000">8</text>
<path fill="#4e89b7" stroke="transparent" d="M602.26,-415.33C602.26,-415.33 638.26,-415.33 638.26,-415.33 641.76,-415.33 645.26,-418.83 645.26,-422.33 645.26,-422.33 645.26,-429.33 645.26,-429.33 645.26,-432.83 641.76,-436.33 638.26,-436.33 638.26,-436.33 602.26,-436.33 602.26,-436.33 598.76,-436.33 595.26,-432.83 595.26,-429.33 595.26,-429.33 595.26,-422.33 595.26,-422.33 595.26,-418.83 598.76,-415.33 602.26,-415.33"></path>
<path fill="none" stroke="#000000" d="M602.26,-415.33C602.26,-415.33 638.26,-415.33 638.26,-415.33 641.76,-415.33 645.26,-418.83 645.26,-422.33 645.26,-422.33 645.26,-429.33 645.26,-429.33 645.26,-432.83 641.76,-436.33 638.26,-436.33 638.26,-436.33 602.26,-436.33 602.26,-436.33 598.76,-436.33 595.26,-432.83 595.26,-429.33 595.26,-429.33 595.26,-422.33 595.26,-422.33 595.26,-418.83 598.76,-415.33 602.26,-415.33"></path>
<text text-anchor="start" x="612.26" y="-422.13" font-family="Times New Roman,serif" font-size="14.00" fill="#000000">L5</text>
<path fill="none" stroke="#000000" d="M602.26,-410.33C602.26,-410.33 638.26,-410.33 638.26,-410.33 644.26,-410.33 650.26,-416.33 650.26,-422.33 650.26,-422.33 650.26,-452.33 650.26,-452.33 650.26,-458.33 644.26,-464.33 638.26,-464.33 638.26,-464.33 602.26,-464.33 602.26,-464.33 596.26,-464.33 590.26,-458.33 590.26,-452.33 590.26,-452.33 590.26,-422.33 590.26,-422.33 590.26,-416.33 596.26,-410.33 602.26,-410.33"></path>
</g>
<!-- 6&#45;&gt;8 -->
<g id="6-8" class="edge">
<title>6-&gt;8</title>
<path fill="none" stroke="#000000" d="M792.94,-480.14C757.69,-471.4 699.47,-456.96 660.5,-447.3"></path>
<polygon fill="#000000" stroke="#000000" points="649.58,-448.72 651.5,-440.95 659.27,-442.88 657.34,-450.64 649.58,-448.72"></polygon>
<polyline fill="none" stroke="#000000" points="658.3,-446.76 660.25,-447.24 "></polyline>
</g>
<!-- 10 -->
<g id="10" class="node">
<title>10</title>
<polygon fill="transparent" stroke="transparent" points="957.75,-363.92 897.75,-363.92 897.75,-309.92 957.75,-309.92 957.75,-363.92"></polygon>
<path fill="#fef8f2" stroke="transparent" d="M909.75,-309.92C909.75,-309.92 945.75,-309.92 945.75,-309.92 951.75,-309.92 957.75,-315.92 957.75,-321.92 957.75,-321.92 957.75,-351.92 957.75,-351.92 957.75,-357.92 951.75,-363.92 945.75,-363.92 945.75,-363.92 909.75,-363.92 909.75,-363.92 903.75,-363.92 897.75,-357.92 897.75,-351.92 897.75,-351.92 897.75,-321.92 897.75,-321.92 897.75,-315.92 903.75,-309.92 909.75,-309.92"></path>
<text text-anchor="start" x="920.75" y="-345.72" font-family="Times New Roman,serif" font-size="14.00" fill="#000000">10</text>
<path fill="#4e89b7" stroke="transparent" d="M909.75,-314.92C909.75,-314.92 945.75,-314.92 945.75,-314.92 949.25,-314.92 952.75,-318.42 952.75,-321.92 952.75,-321.92 952.75,-328.92 952.75,-328.92 952.75,-332.42 949.25,-335.92 945.75,-335.92 945.75,-335.92 909.75,-335.92 909.75,-335.92 906.25,-335.92 902.75,-332.42 902.75,-328.92 902.75,-328.92 902.75,-321.92 902.75,-321.92 902.75,-318.42 906.25,-314.92 909.75,-314.92"></path>
<path fill="none" stroke="#000000" d="M909.75,-314.92C909.75,-314.92 945.75,-314.92 945.75,-314.92 949.25,-314.92 952.75,-318.42 952.75,-321.92 952.75,-321.92 952.75,-328.92 952.75,-328.92 952.75,-332.42 949.25,-335.92 945.75,-335.92 945.75,-335.92 909.75,-335.92 909.75,-335.92 906.25,-335.92 902.75,-332.42 902.75,-328.92 902.75,-328.92 902.75,-321.92 902.75,-321.92 902.75,-318.42 906.25,-314.92 909.75,-314.92"></path>
<text text-anchor="start" x="919.75" y="-321.72" font-family="Times New Roman,serif" font-size="14.00" fill="#000000">L6</text>
<path fill="none" stroke="#000000" d="M909.75,-309.92C909.75,-309.92 945.75,-309.92 945.75,-309.92 951.75,-309.92 957.75,-315.92 957.75,-321.92 957.75,-321.92 957.75,-351.92 957.75,-351.92 957.75,-357.92 951.75,-363.92 945.75,-363.92 945.75,-363.92 909.75,-363.92 909.75,-363.92 903.75,-363.92 897.75,-357.92 897.75,-351.92 897.75,-351.92 897.75,-321.92 897.75,-321.92 897.75,-315.92 903.75,-309.92 909.75,-309.92"></path>
</g>
<!-- 11 -->
<g id="11" class="node">
<title>11</title>
<polygon fill="transparent" stroke="transparent" points="1190.22,-345.78 1130.22,-345.78 1130.22,-291.78 1190.22,-291.78 1190.22,-345.78"></polygon>
<path fill="#fef8f2" stroke="transparent" d="M1142.22,-291.78C1142.22,-291.78 1178.22,-291.78 1178.22,-291.78 1184.22,-291.78 1190.22,-297.78 1190.22,-303.78 1190.22,-303.78 1190.22,-333.78 1190.22,-333.78 1190.22,-339.78 1184.22,-345.78 1178.22,-345.78 1178.22,-345.78 1142.22,-345.78 1142.22,-345.78 1136.22,-345.78 1130.22,-339.78 1130.22,-333.78 1130.22,-333.78 1130.22,-303.78 1130.22,-303.78 1130.22,-297.78 1136.22,-291.78 1142.22,-291.78"></path>
<text text-anchor="start" x="1153.22" y="-327.58" font-family="Times New Roman,serif" font-size="14.00" fill="#000000">11</text>
<path fill="#6aa764" stroke="transparent" d="M1142.22,-296.78C1142.22,-296.78 1178.22,-296.78 1178.22,-296.78 1181.72,-296.78 1185.22,-300.28 1185.22,-303.78 1185.22,-303.78 1185.22,-310.78 1185.22,-310.78 1185.22,-314.28 1181.72,-317.78 1178.22,-317.78 1178.22,-317.78 1142.22,-317.78 1142.22,-317.78 1138.72,-317.78 1135.22,-314.28 1135.22,-310.78 1135.22,-310.78 1135.22,-303.78 1135.22,-303.78 1135.22,-300.28 1138.72,-296.78 1142.22,-296.78"></path>
<path fill="none" stroke="#000000" d="M1142.22,-296.78C1142.22,-296.78 1178.22,-296.78 1178.22,-296.78 1181.72,-296.78 1185.22,-300.28 1185.22,-303.78 1185.22,-303.78 1185.22,-310.78 1185.22,-310.78 1185.22,-314.28 1181.72,-317.78 1178.22,-317.78 1178.22,-317.78 1142.22,-317.78 1142.22,-317.78 1138.72,-317.78 1135.22,-314.28 1135.22,-310.78 1135.22,-310.78 1135.22,-303.78 1135.22,-303.78 1135.22,-300.28 1138.72,-296.78 1142.22,-296.78"></path>
<text text-anchor="start" x="1148.22" y="-303.58" font-family="Times New Roman,serif" font-size="14.00" fill="#000000">BF1</text>
<path fill="none" stroke="#000000" d="M1142.22,-291.78C1142.22,-291.78 1178.22,-291.78 1178.22,-291.78 1184.22,-291.78 1190.22,-297.78 1190.22,-303.78 1190.22,-303.78 1190.22,-333.78 1190.22,-333.78 1190.22,-339.78 1184.22,-345.78 1178.22,-345.78 1178.22,-345.78 1142.22,-345.78 1142.22,-345.78 1136.22,-345.78 1130.22,-339.78 1130.22,-333.78 1130.22,-333.78 1130.22,-303.78 1130.22,-303.78 1130.22,-297.78 1136.22,-291.78 1142.22,-291.78"></path>
</g>
<!-- 10&#45;&gt;11 -->
<g id="10-11" class="edge">
<title>10-&gt;11</title>
<path fill="none" stroke="#000000" d="M968.4,-333.74C1011.08,-330.41 1077.77,-325.21 1120.21,-321.9"></path>
<polygon fill="none" stroke="#000000" points="958.45,-338.53 957.83,-330.56 965.81,-329.93 966.43,-337.91 958.45,-338.53"></polygon>
<polyline fill="none" stroke="#000000" points="966.12,-333.92 968.11,-333.77 "></polyline>
<polygon fill="none" stroke="#000000" points="1129.88,-317.13 1130.5,-325.11 1122.53,-325.73 1121.9,-317.75 1129.88,-317.13"></polygon>
<polyline fill="none" stroke="#000000" points="1122.21,-321.74 1120.22,-321.9 "></polyline>
</g>
<!-- 9 -->
<g id="9" class="node">
<title>9</title>
<polygon fill="transparent" stroke="transparent" points="696.42,-367.07 656.42,-367.07 656.42,-338.07 696.42,-338.07 696.42,-367.07"></polygon>
<path fill="#fef8f2" stroke="transparent" d="M666.08,-338.07C666.08,-338.07 686.75,-338.07 686.75,-338.07 691.58,-338.07 696.42,-342.91 696.42,-347.74 696.42,-347.74 696.42,-357.41 696.42,-357.41 696.42,-362.24 691.58,-367.07 686.75,-367.07 686.75,-367.07 666.08,-367.07 666.08,-367.07 661.25,-367.07 656.42,-362.24 656.42,-357.41 656.42,-357.41 656.42,-347.74 656.42,-347.74 656.42,-342.91 661.25,-338.07 666.08,-338.07"></path>
<text text-anchor="start" x="672.92" y="-348.37" font-family="Times New Roman,serif" font-size="14.00" fill="#000000">9</text>
<path fill="none" stroke="#000000" d="M666.08,-338.07C666.08,-338.07 686.75,-338.07 686.75,-338.07 691.58,-338.07 696.42,-342.91 696.42,-347.74 696.42,-347.74 696.42,-357.41 696.42,-357.41 696.42,-362.24 691.58,-367.07 686.75,-367.07 686.75,-367.07 666.08,-367.07 666.08,-367.07 661.25,-367.07 656.42,-362.24 656.42,-357.41 656.42,-357.41 656.42,-347.74 656.42,-347.74 656.42,-342.91 661.25,-338.07 666.08,-338.07"></path>
</g>
<!-- 10&#45;&gt;9 -->
<g id="10-9" class="edge">
<title>10-&gt;9</title>
<path fill="none" stroke="#000000" d="M897.43,-338.81C849.12,-341.82 755.21,-347.67 706.84,-350.68"></path>
<polygon fill="#000000" stroke="#000000" points="696.93,-355.3 696.43,-347.32 704.42,-346.82 704.91,-354.81 696.93,-355.3"></polygon>
<polyline fill="none" stroke="#000000" points="704.67,-350.81 706.66,-350.69 "></polyline>
</g>
<!-- 13 -->
<g id="13" class="node">
<title>13</title>
<polygon fill="transparent" stroke="transparent" points="769.24,-241.54 709.24,-241.54 709.24,-187.54 769.24,-187.54 769.24,-241.54"></polygon>
<path fill="#fef8f2" stroke="transparent" d="M721.24,-187.54C721.24,-187.54 757.24,-187.54 757.24,-187.54 763.24,-187.54 769.24,-193.54 769.24,-199.54 769.24,-199.54 769.24,-229.54 769.24,-229.54 769.24,-235.54 763.24,-241.54 757.24,-241.54 757.24,-241.54 721.24,-241.54 721.24,-241.54 715.24,-241.54 709.24,-235.54 709.24,-229.54 709.24,-229.54 709.24,-199.54 709.24,-199.54 709.24,-193.54 715.24,-187.54 721.24,-187.54"></path>
<text text-anchor="start" x="732.24" y="-223.34" font-family="Times New Roman,serif" font-size="14.00" fill="#000000">13</text>
<path fill="#4e89b7" stroke="transparent" d="M721.24,-192.54C721.24,-192.54 757.24,-192.54 757.24,-192.54 760.74,-192.54 764.24,-196.04 764.24,-199.54 764.24,-199.54 764.24,-206.54 764.24,-206.54 764.24,-210.04 760.74,-213.54 757.24,-213.54 757.24,-213.54 721.24,-213.54 721.24,-213.54 717.74,-213.54 714.24,-210.04 714.24,-206.54 714.24,-206.54 714.24,-199.54 714.24,-199.54 714.24,-196.04 717.74,-192.54 721.24,-192.54"></path>
<path fill="none" stroke="#000000" d="M721.24,-192.54C721.24,-192.54 757.24,-192.54 757.24,-192.54 760.74,-192.54 764.24,-196.04 764.24,-199.54 764.24,-199.54 764.24,-206.54 764.24,-206.54 764.24,-210.04 760.74,-213.54 757.24,-213.54 757.24,-213.54 721.24,-213.54 721.24,-213.54 717.74,-213.54 714.24,-210.04 714.24,-206.54 714.24,-206.54 714.24,-199.54 714.24,-199.54 714.24,-196.04 717.74,-192.54 721.24,-192.54"></path>
<text text-anchor="start" x="731.24" y="-199.34" font-family="Times New Roman,serif" font-size="14.00" fill="#000000">L7</text>
<path fill="none" stroke="#000000" d="M721.24,-187.54C721.24,-187.54 757.24,-187.54 757.24,-187.54 763.24,-187.54 769.24,-193.54 769.24,-199.54 769.24,-199.54 769.24,-229.54 769.24,-229.54 769.24,-235.54 763.24,-241.54 757.24,-241.54 757.24,-241.54 721.24,-241.54 721.24,-241.54 715.24,-241.54 709.24,-235.54 709.24,-229.54 709.24,-229.54 709.24,-199.54 709.24,-199.54 709.24,-193.54 715.24,-187.54 721.24,-187.54"></path>
</g>
<!-- 12 -->
<g id="12" class="node">
<title>12</title>
<polygon fill="transparent" stroke="transparent" points="593.15,-289.53 553.15,-289.53 553.15,-260.53 593.15,-260.53 593.15,-289.53"></polygon>
<path fill="#fef8f2" stroke="transparent" d="M562.81,-260.53C562.81,-260.53 583.48,-260.53 583.48,-260.53 588.31,-260.53 593.15,-265.36 593.15,-270.2 593.15,-270.2 593.15,-279.86 593.15,-279.86 593.15,-284.7 588.31,-289.53 583.48,-289.53 583.48,-289.53 562.81,-289.53 562.81,-289.53 557.98,-289.53 553.15,-284.7 553.15,-279.86 553.15,-279.86 553.15,-270.2 553.15,-270.2 553.15,-265.36 557.98,-260.53 562.81,-260.53"></path>
<text text-anchor="start" x="566.15" y="-270.83" font-family="Times New Roman,serif" font-size="14.00" fill="#000000">12</text>
<path fill="none" stroke="#000000" d="M562.81,-260.53C562.81,-260.53 583.48,-260.53 583.48,-260.53 588.31,-260.53 593.15,-265.36 593.15,-270.2 593.15,-270.2 593.15,-279.86 593.15,-279.86 593.15,-284.7 588.31,-289.53 583.48,-289.53 583.48,-289.53 562.81,-289.53 562.81,-289.53 557.98,-289.53 553.15,-284.7 553.15,-279.86 553.15,-279.86 553.15,-270.2 553.15,-270.2 553.15,-265.36 557.98,-260.53 562.81,-260.53"></path>
</g>
<!-- 13&#45;&gt;12 -->
<g id="12-13" class="edge">
<title>13-&gt;12</title>
<path fill="none" stroke="#000000" d="M709.16,-225.49C679.1,-236.44 633.13,-253.18 603.1,-264.12"></path>
<polygon fill="#000000" stroke="#000000" points="594.95,-271.35 592.21,-263.83 599.73,-261.09 602.46,-268.61 594.95,-271.35"></polygon>
<polyline fill="none" stroke="#000000" points="601.09,-264.85 602.97,-264.17 "></polyline>
</g>
<!-- 12&#45;&gt;9 -->
<g id="12-9" class="edge">
<title>12-&gt;9</title>
<path fill="none" stroke="#000000" d="M592.57,-289.61C608.44,-301.53 631.06,-318.52 648.81,-331.84"></path>
<polygon fill="#000000" stroke="#000000" points="659.48,-334.86 654.68,-341.25 648.28,-336.45 653.09,-330.05 659.48,-334.86"></polygon>
<polyline fill="none" stroke="#000000" points="650.68,-333.25 649.08,-332.05 "></polyline>
</g>
<!-- 14 -->
<g id="14" class="node">
<title>14</title>
<polygon fill="transparent" stroke="transparent" points="420.67,-248.99 360.67,-248.99 360.67,-194.99 420.67,-194.99 420.67,-248.99"></polygon>
<path fill="#fef8f2" stroke="transparent" d="M372.67,-194.99C372.67,-194.99 408.67,-194.99 408.67,-194.99 414.67,-194.99 420.67,-200.99 420.67,-206.99 420.67,-206.99 420.67,-236.99 420.67,-236.99 420.67,-242.99 414.67,-248.99 408.67,-248.99 408.67,-248.99 372.67,-248.99 372.67,-248.99 366.67,-248.99 360.67,-242.99 360.67,-236.99 360.67,-236.99 360.67,-206.99 360.67,-206.99 360.67,-200.99 366.67,-194.99 372.67,-194.99"></path>
<text text-anchor="start" x="383.67" y="-230.79" font-family="Times New Roman,serif" font-size="14.00" fill="#000000">14</text>
<path fill="#4e89b7" stroke="transparent" d="M372.67,-199.99C372.67,-199.99 408.67,-199.99 408.67,-199.99 412.17,-199.99 415.67,-203.49 415.67,-206.99 415.67,-206.99 415.67,-213.99 415.67,-213.99 415.67,-217.49 412.17,-220.99 408.67,-220.99 408.67,-220.99 372.67,-220.99 372.67,-220.99 369.17,-220.99 365.67,-217.49 365.67,-213.99 365.67,-213.99 365.67,-206.99 365.67,-206.99 365.67,-203.49 369.17,-199.99 372.67,-199.99"></path>
<path fill="none" stroke="#000000" d="M372.67,-199.99C372.67,-199.99 408.67,-199.99 408.67,-199.99 412.17,-199.99 415.67,-203.49 415.67,-206.99 415.67,-206.99 415.67,-213.99 415.67,-213.99 415.67,-217.49 412.17,-220.99 408.67,-220.99 408.67,-220.99 372.67,-220.99 372.67,-220.99 369.17,-220.99 365.67,-217.49 365.67,-213.99 365.67,-213.99 365.67,-206.99 365.67,-206.99 365.67,-203.49 369.17,-199.99 372.67,-199.99"></path>
<text text-anchor="start" x="382.67" y="-206.79" font-family="Times New Roman,serif" font-size="14.00" fill="#000000">L8</text>
<path fill="none" stroke="#000000" d="M372.67,-194.99C372.67,-194.99 408.67,-194.99 408.67,-194.99 414.67,-194.99 420.67,-200.99 420.67,-206.99 420.67,-206.99 420.67,-236.99 420.67,-236.99 420.67,-242.99 414.67,-248.99 408.67,-248.99 408.67,-248.99 372.67,-248.99 372.67,-248.99 366.67,-248.99 360.67,-242.99 360.67,-236.99 360.67,-236.99 360.67,-206.99 360.67,-206.99 360.67,-200.99 366.67,-194.99 372.67,-194.99"></path>
</g>
<!-- 14&#45;&gt;12 -->
<g id="12-14" class="edge">
<title>14-&gt;12</title>
<path fill="none" stroke="#000000" d="M420.8,-230.75C454.74,-240.62 509.57,-256.55 543.37,-266.37"></path>
<polygon fill="#000000" stroke="#000000" points="554.25,-265.37 552.02,-273.05 544.34,-270.82 546.57,-263.14 554.25,-265.37"></polygon>
<polyline fill="none" stroke="#000000" points="545.45,-266.98 543.53,-266.42 "></polyline>
</g>
<!-- 15 -->
<g id="15" class="node">
<title>15</title>
<polygon fill="transparent" stroke="transparent" points="303.95,-182.68 243.95,-182.68 243.95,-128.68 303.95,-128.68 303.95,-182.68"></polygon>
<path fill="#fef8f2" stroke="transparent" d="M255.95,-128.68C255.95,-128.68 291.95,-128.68 291.95,-128.68 297.95,-128.68 303.95,-134.68 303.95,-140.68 303.95,-140.68 303.95,-170.68 303.95,-170.68 303.95,-176.68 297.95,-182.68 291.95,-182.68 291.95,-182.68 255.95,-182.68 255.95,-182.68 249.95,-182.68 243.95,-176.68 243.95,-170.68 243.95,-170.68 243.95,-140.68 243.95,-140.68 243.95,-134.68 249.95,-128.68 255.95,-128.68"></path>
<text text-anchor="start" x="266.95" y="-164.48" font-family="Times New Roman,serif" font-size="14.00" fill="#000000">15</text>
<path fill="#aaa1e3" stroke="transparent" d="M255.95,-133.68C255.95,-133.68 291.95,-133.68 291.95,-133.68 295.45,-133.68 298.95,-137.18 298.95,-140.68 298.95,-140.68 298.95,-147.68 298.95,-147.68 298.95,-151.18 295.45,-154.68 291.95,-154.68 291.95,-154.68 255.95,-154.68 255.95,-154.68 252.45,-154.68 248.95,-151.18 248.95,-147.68 248.95,-147.68 248.95,-140.68 248.95,-140.68 248.95,-137.18 252.45,-133.68 255.95,-133.68"></path>
<path fill="none" stroke="#000000" d="M255.95,-133.68C255.95,-133.68 291.95,-133.68 291.95,-133.68 295.45,-133.68 298.95,-137.18 298.95,-140.68 298.95,-140.68 298.95,-147.68 298.95,-147.68 298.95,-151.18 295.45,-154.68 291.95,-154.68 291.95,-154.68 255.95,-154.68 255.95,-154.68 252.45,-154.68 248.95,-151.18 248.95,-147.68 248.95,-147.68 248.95,-140.68 248.95,-140.68 248.95,-137.18 252.45,-133.68 255.95,-133.68"></path>
<text text-anchor="start" x="265.95" y="-140.48" font-family="Times New Roman,serif" font-size="14.00" fill="#000000">L9</text>
<path fill="none" stroke="#000000" d="M255.95,-128.68C255.95,-128.68 291.95,-128.68 291.95,-128.68 297.95,-128.68 303.95,-134.68 303.95,-140.68 303.95,-140.68 303.95,-170.68 303.95,-170.68 303.95,-176.68 297.95,-182.68 291.95,-182.68 291.95,-182.68 255.95,-182.68 255.95,-182.68 249.95,-182.68 243.95,-176.68 243.95,-170.68 243.95,-170.68 243.95,-140.68 243.95,-140.68 243.95,-134.68 249.95,-128.68 255.95,-128.68"></path>
</g>
<!-- 14&#45;&gt;15 -->
<g id="14-15" class="edge">
<title>14-&gt;15</title>
<path fill="none" stroke="#000000" d="M360.61,-204.92C343.32,-195.09 321.66,-182.79 304.31,-172.93"></path>
</g>
<!-- 16 -->
<g id="16" class="node">
<title>16</title>
<polygon fill="transparent" stroke="transparent" points="208.22,-116 148.22,-116 148.22,-62 208.22,-62 208.22,-116"></polygon>
<path fill="#fef8f2" stroke="transparent" d="M160.22,-62C160.22,-62 196.22,-62 196.22,-62 202.22,-62 208.22,-68 208.22,-74 208.22,-74 208.22,-104 208.22,-104 208.22,-110 202.22,-116 196.22,-116 196.22,-116 160.22,-116 160.22,-116 154.22,-116 148.22,-110 148.22,-104 148.22,-104 148.22,-74 148.22,-74 148.22,-68 154.22,-62 160.22,-62"></path>
<text text-anchor="start" x="171.22" y="-97.8" font-family="Times New Roman,serif" font-size="14.00" fill="#000000">16</text>
<path fill="#4e89b7" stroke="transparent" d="M160.22,-67C160.22,-67 196.22,-67 196.22,-67 199.72,-67 203.22,-70.5 203.22,-74 203.22,-74 203.22,-81 203.22,-81 203.22,-84.5 199.72,-88 196.22,-88 196.22,-88 160.22,-88 160.22,-88 156.72,-88 153.22,-84.5 153.22,-81 153.22,-81 153.22,-74 153.22,-74 153.22,-70.5 156.72,-67 160.22,-67"></path>
<path fill="none" stroke="#000000" d="M160.22,-67C160.22,-67 196.22,-67 196.22,-67 199.72,-67 203.22,-70.5 203.22,-74 203.22,-74 203.22,-81 203.22,-81 203.22,-84.5 199.72,-88 196.22,-88 196.22,-88 160.22,-88 160.22,-88 156.72,-88 153.22,-84.5 153.22,-81 153.22,-81 153.22,-74 153.22,-74 153.22,-70.5 156.72,-67 160.22,-67"></path>
<text text-anchor="start" x="167.22" y="-73.8" font-family="Times New Roman,serif" font-size="14.00" fill="#000000">L10</text>
<path fill="none" stroke="#000000" d="M160.22,-62C160.22,-62 196.22,-62 196.22,-62 202.22,-62 208.22,-68 208.22,-74 208.22,-74 208.22,-104 208.22,-104 208.22,-110 202.22,-116 196.22,-116 196.22,-116 160.22,-116 160.22,-116 154.22,-116 148.22,-110 148.22,-104 148.22,-104 148.22,-74 148.22,-74 148.22,-68 154.22,-62 160.22,-62"></path>
</g>
<!-- 15&#45;&gt;16 -->
<g id="15-16" class="edge">
<title>15-&gt;16</title>
<path fill="none" stroke="#000000" d="M243.92,-134.77C232.63,-126.9 219.78,-117.95 208.47,-110.07"></path>
</g>
<!-- 17 -->
<g id="17" class="node">
<title>17</title>
<polygon fill="transparent" stroke="transparent" points="84.46,-54 24.46,-54 24.46,0 84.46,0 84.46,-54"></polygon>
<path fill="#fef8f2" stroke="transparent" d="M36.46,0C36.46,0 72.46,0 72.46,0 78.46,0 84.46,-6 84.46,-12 84.46,-12 84.46,-42 84.46,-42 84.46,-48 78.46,-54 72.46,-54 72.46,-54 36.46,-54 36.46,-54 30.46,-54 24.46,-48 24.46,-42 24.46,-42 24.46,-12 24.46,-12 24.46,-6 30.46,0 36.46,0"></path>
<text text-anchor="start" x="47.46" y="-35.8" font-family="Times New Roman,serif" font-size="14.00" fill="#000000">17</text>
<path fill="#6aa764" stroke="transparent" d="M36.46,-5C36.46,-5 72.46,-5 72.46,-5 75.96,-5 79.46,-8.5 79.46,-12 79.46,-12 79.46,-19 79.46,-19 79.46,-22.5 75.96,-26 72.46,-26 72.46,-26 36.46,-26 36.46,-26 32.96,-26 29.46,-22.5 29.46,-19 29.46,-19 29.46,-12 29.46,-12 29.46,-8.5 32.96,-5 36.46,-5"></path>
<path fill="none" stroke="#000000" d="M36.46,-5C36.46,-5 72.46,-5 72.46,-5 75.96,-5 79.46,-8.5 79.46,-12 79.46,-12 79.46,-19 79.46,-19 79.46,-22.5 75.96,-26 72.46,-26 72.46,-26 36.46,-26 36.46,-26 32.96,-26 29.46,-22.5 29.46,-19 29.46,-19 29.46,-12 29.46,-12 29.46,-8.5 32.96,-5 36.46,-5"></path>
<text text-anchor="start" x="42.46" y="-11.8" font-family="Times New Roman,serif" font-size="14.00" fill="#000000">BF2</text>
<path fill="none" stroke="#000000" d="M36.46,0C36.46,0 72.46,0 72.46,0 78.46,0 84.46,-6 84.46,-12 84.46,-12 84.46,-42 84.46,-42 84.46,-48 78.46,-54 72.46,-54 72.46,-54 36.46,-54 36.46,-54 30.46,-54 24.46,-48 24.46,-42 24.46,-42 24.46,-12 24.46,-12 24.46,-6 30.46,0 36.46,0"></path>
</g>
<!-- 16&#45;&gt;17 -->
<g id="16-17" class="edge">
<title>16-&gt;17</title>
<path fill="none" stroke="#000000" d="M138.59,-69.15C124.3,-61.99 108.19,-53.92 93.92,-46.77"></path>
<polygon fill="none" stroke="#000000" points="149.73,-70.26 146.15,-77.41 139,-73.83 142.58,-66.67 149.73,-70.26"></polygon>
<polyline fill="none" stroke="#000000" points="140.79,-70.25 139,-69.35 "></polyline>
<polygon fill="none" stroke="#000000" points="83.06,-45.8 86.64,-38.65 93.79,-42.23 90.21,-49.38 83.06,-45.8"></polygon>
<polyline fill="none" stroke="#000000" points="92,-45.81 93.79,-46.7 "></polyline>
</g>
<!-- 2 -->
<g id="2" class="node">
<title>2</title>
<polygon fill="transparent" stroke="transparent" points="302.21,-659.13 242.21,-659.13 242.21,-605.13 302.21,-605.13 302.21,-659.13"></polygon>
<path fill="#fef8f2" stroke="transparent" d="M254.21,-605.13C254.21,-605.13 290.21,-605.13 290.21,-605.13 296.21,-605.13 302.21,-611.13 302.21,-617.13 302.21,-617.13 302.21,-647.13 302.21,-647.13 302.21,-653.13 296.21,-659.13 290.21,-659.13 290.21,-659.13 254.21,-659.13 254.21,-659.13 248.21,-659.13 242.21,-653.13 242.21,-647.13 242.21,-647.13 242.21,-617.13 242.21,-617.13 242.21,-611.13 248.21,-605.13 254.21,-605.13"></path>
<text text-anchor="start" x="268.71" y="-640.93" font-family="Times New Roman,serif" font-size="14.00" fill="#000000">2</text>
<path fill="#4e89b7" stroke="transparent" d="M254.21,-610.13C254.21,-610.13 290.21,-610.13 290.21,-610.13 293.71,-610.13 297.21,-613.63 297.21,-617.13 297.21,-617.13 297.21,-624.13 297.21,-624.13 297.21,-627.63 293.71,-631.13 290.21,-631.13 290.21,-631.13 254.21,-631.13 254.21,-631.13 250.71,-631.13 247.21,-627.63 247.21,-624.13 247.21,-624.13 247.21,-617.13 247.21,-617.13 247.21,-613.63 250.71,-610.13 254.21,-610.13"></path>
<path fill="none" stroke="#000000" d="M254.21,-610.13C254.21,-610.13 290.21,-610.13 290.21,-610.13 293.71,-610.13 297.21,-613.63 297.21,-617.13 297.21,-617.13 297.21,-624.13 297.21,-624.13 297.21,-627.63 293.71,-631.13 290.21,-631.13 290.21,-631.13 254.21,-631.13 254.21,-631.13 250.71,-631.13 247.21,-627.63 247.21,-624.13 247.21,-624.13 247.21,-617.13 247.21,-617.13 247.21,-613.63 250.71,-610.13 254.21,-610.13"></path>
<text text-anchor="start" x="264.21" y="-616.93" font-family="Times New Roman,serif" font-size="14.00" fill="#000000">L1</text>
<path fill="none" stroke="#000000" d="M254.21,-605.13C254.21,-605.13 290.21,-605.13 290.21,-605.13 296.21,-605.13 302.21,-611.13 302.21,-617.13 302.21,-617.13 302.21,-647.13 302.21,-647.13 302.21,-653.13 296.21,-659.13 290.21,-659.13 290.21,-659.13 254.21,-659.13 254.21,-659.13 248.21,-659.13 242.21,-653.13 242.21,-647.13 242.21,-647.13 242.21,-617.13 242.21,-617.13 242.21,-611.13 248.21,-605.13 254.21,-605.13"></path>
</g>
<!-- 2&#45;&gt;3 -->
<g id="2-3" class="edge">
<title>2-&gt;3</title>
<path fill="none" stroke="#000000" d="M271.85,-604.89C271.68,-591.94 271.48,-576.98 271.34,-566.23"></path>
</g>
<!-- 1 -->
<g id="1" class="node">
<title>1</title>
<polygon fill="transparent" stroke="transparent" points="259.05,-733.26 199.05,-733.26 199.05,-679.26 259.05,-679.26 259.05,-733.26"></polygon>
<path fill="#fef8f2" stroke="transparent" d="M211.05,-679.26C211.05,-679.26 247.05,-679.26 247.05,-679.26 253.05,-679.26 259.05,-685.26 259.05,-691.26 259.05,-691.26 259.05,-721.26 259.05,-721.26 259.05,-727.26 253.05,-733.26 247.05,-733.26 247.05,-733.26 211.05,-733.26 211.05,-733.26 205.05,-733.26 199.05,-727.26 199.05,-721.26 199.05,-721.26 199.05,-691.26 199.05,-691.26 199.05,-685.26 205.05,-679.26 211.05,-679.26"></path>
<text text-anchor="start" x="225.55" y="-715.06" font-family="Times New Roman,serif" font-size="14.00" fill="#000000">1</text>
<path fill="#6aa764" stroke="transparent" d="M211.05,-684.26C211.05,-684.26 247.05,-684.26 247.05,-684.26 250.55,-684.26 254.05,-687.76 254.05,-691.26 254.05,-691.26 254.05,-698.26 254.05,-698.26 254.05,-701.76 250.55,-705.26 247.05,-705.26 247.05,-705.26 211.05,-705.26 211.05,-705.26 207.55,-705.26 204.05,-701.76 204.05,-698.26 204.05,-698.26 204.05,-691.26 204.05,-691.26 204.05,-687.76 207.55,-684.26 211.05,-684.26"></path>
<path fill="none" stroke="#000000" d="M211.05,-684.26C211.05,-684.26 247.05,-684.26 247.05,-684.26 250.55,-684.26 254.05,-687.76 254.05,-691.26 254.05,-691.26 254.05,-698.26 254.05,-698.26 254.05,-701.76 250.55,-705.26 247.05,-705.26 247.05,-705.26 211.05,-705.26 211.05,-705.26 207.55,-705.26 204.05,-701.76 204.05,-698.26 204.05,-698.26 204.05,-691.26 204.05,-691.26 204.05,-687.76 207.55,-684.26 211.05,-684.26"></path>
<text text-anchor="start" x="218.55" y="-691.06" font-family="Times New Roman,serif" font-size="14.00" fill="#000000">MF</text>
<path fill="none" stroke="#000000" d="M211.05,-679.26C211.05,-679.26 247.05,-679.26 247.05,-679.26 253.05,-679.26 259.05,-685.26 259.05,-691.26 259.05,-691.26 259.05,-721.26 259.05,-721.26 259.05,-727.26 253.05,-733.26 247.05,-733.26 247.05,-733.26 211.05,-733.26 211.05,-733.26 205.05,-733.26 199.05,-727.26 199.05,-721.26 199.05,-721.26 199.05,-691.26 199.05,-691.26 199.05,-685.26 205.05,-679.26 211.05,-679.26"></path>
</g>
<!-- 2&#45;&gt;1 -->
<g id="1-2" class="edge">
<title>2-&gt;1</title>
<path fill="none" stroke="#000000" d="M251.17,-668.26C250.78,-668.94 250.38,-669.62 249.98,-670.31"></path>
<polygon fill="#000000" stroke="#000000" points="252.93,-657.3 259.84,-661.32 255.82,-668.24 248.9,-664.21 252.93,-657.3"></polygon>
<polyline fill="none" stroke="#000000" points="252.36,-666.22 251.35,-667.95 "></polyline>
<polygon fill="#000000" stroke="#000000" points="248.33,-681.09 241.42,-677.07 245.44,-670.15 252.36,-674.18 248.33,-681.09"></polygon>
<polyline fill="none" stroke="#000000" points="248.9,-672.17 249.91,-670.44 "></polyline>
</g>
<!-- 8&#45;&gt;9 -->
<g id="8-9" class="edge">
<title>8-&gt;9</title>
<path fill="none" stroke="#000000" d="M638.34,-410.04C647.7,-395.91 658.77,-379.21 666.55,-367.46"></path>
</g>
<!-- 8&#45;&gt;5 -->
<g id="5-8" class="edge">
<title>8-&gt;5</title>
<path fill="none" stroke="#000000" d="M590.25,-445.91C555.49,-455.86 498.54,-472.15 463.7,-482.12"></path>
<polygon fill="#000000" stroke="#000000" points="454.74,-488.84 452.54,-481.15 460.23,-478.95 462.43,-486.64 454.74,-488.84"></polygon>
<polyline fill="none" stroke="#000000" points="461.33,-482.79 463.26,-482.24 "></polyline>
</g>
</g>
</svg>